<mxfile host="Electron" modified="2024-05-02T13:12:27.336Z" agent="Mozilla/5.0 (Windows NT 10.0; Win64; x64) AppleWebKit/537.36 (KHTML, like Gecko) draw.io/24.2.5 Chrome/120.0.6099.109 Electron/28.1.0 Safari/537.36" etag="zv9r-PhxL75JyHDQZLVx" version="24.2.5" type="device">
  <diagram name="Page-1" id="FWlR0QyKhR7gVn5-pv5x">
    <mxGraphModel dx="678" dy="453" grid="1" gridSize="10" guides="1" tooltips="1" connect="1" arrows="1" fold="1" page="1" pageScale="1" pageWidth="827" pageHeight="1169" math="0" shadow="0">
      <root>
        <mxCell id="0" />
        <mxCell id="1" parent="0" />
        <mxCell id="OVZTzuoZGJF5KFkqCkdf-3" value="" style="edgeStyle=orthogonalEdgeStyle;rounded=0;orthogonalLoop=1;jettySize=auto;html=1;" parent="1" source="OVZTzuoZGJF5KFkqCkdf-1" target="OVZTzuoZGJF5KFkqCkdf-2" edge="1">
          <mxGeometry relative="1" as="geometry" />
        </mxCell>
        <mxCell id="OVZTzuoZGJF5KFkqCkdf-1" value="Input image" style="rounded=1;whiteSpace=wrap;html=1;" parent="1" vertex="1">
          <mxGeometry x="160" y="20" width="120" height="60" as="geometry" />
        </mxCell>
        <mxCell id="OVZTzuoZGJF5KFkqCkdf-10" value="" style="edgeStyle=orthogonalEdgeStyle;rounded=0;orthogonalLoop=1;jettySize=auto;html=1;" parent="1" source="OVZTzuoZGJF5KFkqCkdf-2" target="OVZTzuoZGJF5KFkqCkdf-9" edge="1">
          <mxGeometry relative="1" as="geometry" />
        </mxCell>
        <mxCell id="BFuelwUm15IlmJ-tVIaQ-1" style="edgeStyle=orthogonalEdgeStyle;rounded=0;orthogonalLoop=1;jettySize=auto;html=1;" edge="1" parent="1" source="OVZTzuoZGJF5KFkqCkdf-2" target="OVZTzuoZGJF5KFkqCkdf-13">
          <mxGeometry relative="1" as="geometry" />
        </mxCell>
        <mxCell id="OVZTzuoZGJF5KFkqCkdf-2" value="Median filter" style="rounded=1;whiteSpace=wrap;html=1;" parent="1" vertex="1">
          <mxGeometry x="160" y="150" width="120" height="60" as="geometry" />
        </mxCell>
        <mxCell id="OVZTzuoZGJF5KFkqCkdf-12" value="" style="edgeStyle=orthogonalEdgeStyle;rounded=0;orthogonalLoop=1;jettySize=auto;html=1;" parent="1" source="OVZTzuoZGJF5KFkqCkdf-5" target="OVZTzuoZGJF5KFkqCkdf-11" edge="1">
          <mxGeometry relative="1" as="geometry" />
        </mxCell>
        <mxCell id="OVZTzuoZGJF5KFkqCkdf-5" value="Edge detection" style="rounded=1;whiteSpace=wrap;html=1;" parent="1" vertex="1">
          <mxGeometry x="370" y="240" width="120" height="60" as="geometry" />
        </mxCell>
        <mxCell id="OVZTzuoZGJF5KFkqCkdf-9" value="Median filtered image" style="whiteSpace=wrap;html=1;rounded=1;" parent="1" vertex="1">
          <mxGeometry x="160" y="380" width="120" height="60" as="geometry" />
        </mxCell>
        <mxCell id="OVZTzuoZGJF5KFkqCkdf-11" value="Edge image" style="whiteSpace=wrap;html=1;rounded=1;" parent="1" vertex="1">
          <mxGeometry x="370" y="380" width="120" height="60" as="geometry" />
        </mxCell>
        <mxCell id="OVZTzuoZGJF5KFkqCkdf-14" value="" style="edgeStyle=orthogonalEdgeStyle;rounded=0;orthogonalLoop=1;jettySize=auto;html=1;" parent="1" source="OVZTzuoZGJF5KFkqCkdf-13" target="OVZTzuoZGJF5KFkqCkdf-5" edge="1">
          <mxGeometry relative="1" as="geometry" />
        </mxCell>
        <mxCell id="OVZTzuoZGJF5KFkqCkdf-13" value="Filtered image" style="text;html=1;align=center;verticalAlign=middle;whiteSpace=wrap;rounded=0;" parent="1" vertex="1">
          <mxGeometry x="400" y="165" width="60" height="30" as="geometry" />
        </mxCell>
      </root>
    </mxGraphModel>
  </diagram>
</mxfile>
